HIERARCHY
ROOT Hips
{
	OFFSET 0.000000 0.000000 0.000000
	CHANNELS 6 Xposition Yposition Zposition Zrotation Yrotation Xrotation 
	JOINT LHipJoint
	{
		OFFSET 0.000000 0.000000 0.000000
		CHANNELS 3 Zrotation Yrotation Xrotation
		JOINT LeftUpLeg
		{
			OFFSET 1.363060 -1.794630 0.839290
			CHANNELS 3 Zrotation Yrotation Xrotation
			JOINT LeftLeg
			{
				OFFSET 2.448110 -6.726130 0.000000
				CHANNELS 3 Zrotation Yrotation Xrotation
				JOINT LeftFoot
				{
					OFFSET 2.562200 -7.039590 0.000000
					CHANNELS 3 Zrotation Yrotation Xrotation
					JOINT LeftToeBase
					{
						OFFSET 0.157640 -0.433110 2.322550
						CHANNELS 3 Zrotation Yrotation Xrotation
						End Site
						{
							OFFSET 0.000000 0.000000 0.000000
						}
					}
				}
			}
		}
	}
	JOINT RHipJoint
	{
		OFFSET 0.000000 0.000000 0.000000
		CHANNELS 3 Zrotation Yrotation Xrotation
		JOINT RightUpLeg
		{
			OFFSET -1.305520 -1.794630 0.839290
			CHANNELS 3 Zrotation Yrotation Xrotation
			JOINT RightLeg
			{
				OFFSET -2.542530 -6.985550 0.000000
				CHANNELS 3 Zrotation Yrotation Xrotation
				JOINT RightFoot
				{
					OFFSET -2.568260 -7.056230 0.000000
					CHANNELS 3 Zrotation Yrotation Xrotation
					JOINT RightToeBase
					{
						OFFSET -0.164730 -0.452590 2.363150
						CHANNELS 3 Zrotation Yrotation Xrotation
						End Site
						{
							OFFSET 0.000000 0.000000 0.000000
						}
					}
				}
			}
		}
	}
	JOINT LowerBack
	{
		OFFSET 0.000000 0.000000 0.000000
		CHANNELS 3 Zrotation Yrotation Xrotation
		JOINT Spine
		{
			OFFSET 0.028270 2.035590 -0.193380
			CHANNELS 3 Zrotation Yrotation Xrotation
			JOINT Spine1
			{
				OFFSET 0.056720 2.048850 -0.042750
				CHANNELS 3 Zrotation Yrotation Xrotation
				JOINT Neck
				{
					OFFSET 0.000000 0.000000 0.000000
					CHANNELS 3 Zrotation Yrotation Xrotation
					JOINT Neck1
					{
						OFFSET -0.054170 1.746240 0.172020
						CHANNELS 3 Zrotation Yrotation Xrotation
						JOINT Head
						{
							OFFSET 0.104070 1.761360 -0.123970
							CHANNELS 3 Zrotation Yrotation Xrotation
							End Site
							{
								OFFSET 0.000000 0.000000 0.000000
							}
						}
					}
				}
				JOINT LeftShoulder
				{
					OFFSET 0.000000 0.000000 0.000000
					CHANNELS 3 Zrotation Yrotation Xrotation
					JOINT LeftArm
					{
						OFFSET 3.362410 1.200890 -0.311210
						CHANNELS 3 Zrotation Yrotation Xrotation
						JOINT LeftForeArm
						{
							OFFSET 4.983000 -0.000000 -0.000000
							CHANNELS 3 Zrotation Yrotation Xrotation
							JOINT LeftHand
							{
								OFFSET 3.483560 -0.000000 -0.000000
								CHANNELS 3 Zrotation Yrotation Xrotation
								JOINT LeftFingerBase
								{
									OFFSET 0.000000 0.000000 0.000000
									CHANNELS 3 Zrotation Yrotation Xrotation
									JOINT LeftHandIndex1
									{
										OFFSET 0.715260 -0.000000 -0.000000
										CHANNELS 3 Zrotation Yrotation Xrotation
										End Site
										{
											OFFSET 0.000000 0.000000 0.000000
										}
									}
								}
								JOINT LThumb
								{
									OFFSET 0.000000 0.000000 0.000000
									CHANNELS 3 Zrotation Yrotation Xrotation
									End Site
									{
										OFFSET 0.000000 0.000000 0.000000
									}
								}
							}
						}
					}
				}
				JOINT RightShoulder
				{
					OFFSET 0.000000 0.000000 0.000000
					CHANNELS 3 Zrotation Yrotation Xrotation
					JOINT RightArm
					{
						OFFSET -3.136600 1.374050 -0.404650
						CHANNELS 3 Zrotation Yrotation Xrotation
						JOINT RightForeArm
						{
							OFFSET -5.241900 -0.000000 -0.000000
							CHANNELS 3 Zrotation Yrotation Xrotation
							JOINT RightHand
							{
								OFFSET -3.444170 -0.000000 -0.000000
								CHANNELS 3 Zrotation Yrotation Xrotation
								JOINT RightFingerBase
								{
									OFFSET 0.000000 0.000000 0.000000
									CHANNELS 3 Zrotation Yrotation Xrotation
									JOINT RightHandIndex1
									{
										OFFSET -0.622530 -0.000000 -0.000000
										CHANNELS 3 Zrotation Yrotation Xrotation
										End Site
										{
											OFFSET 0.000000 0.000000 0.000000
										}
									}
								}
								JOINT RThumb
								{
									OFFSET 0.000000 0.000000 0.000000
									CHANNELS 3 Zrotation Yrotation Xrotation
									End Site
									{
										OFFSET 0.000000 0.000000 0.000000
									}
								}
							}
						}
					}
				}
			}
		}
	}
}
MOTION
Frames: 6
Frame Time: 0.008333
-8.178953 17.092790 0.574469 -167.302276 87.248011 -163.729789 -11.975711 5.728378 1.063522 1.621704 9.312090 9.358162 0.240362 2.043456 27.979318 1.824512 -1.677594 35.266875 -2.008699 0.000000 -67.711500 8.872042 -0.496569 1.722796 8.392930 -6.195805 -24.141301 2.220437 0.419413 11.210581 -2.181354 -10.515672 -3.793492 -1.594300 -0.000000 -32.791100 3.891293 -6.031075 -4.430534 0.628947 -6.490401 -2.866472 -5.333915 -6.452775 3.660548 10.107294 -24.586809 -11.820913 -1.901624 -0.091695 -1.010734 0.000000 0.000000 0.000000 6.125315 17.198264 0.822191 -39.657329 11.493194 3.568715 -1.499418 -62.895038 0.007927 -0.794140 -1.729688 0.012664 -0.104582 0.162093 0.000000 0.000000 0.000000 0.000000 0.000000 0.000000 0.000000 15.796791 -22.624066 -0.494402 71.213646 -20.932868 -7.400870 4.221439 31.689053 0.015638 6.518361 5.787162 0.328485 0.091376 -0.046617 -0.000000 0.000000 0.000000 0.000000 0.000000 0.000000 0.000000 
-7.936629 17.087737 0.574685 -163.128614 87.492717 -159.833626 -12.178379 5.713598 1.076536 2.104858 9.968761 8.474683 0.316538 2.051997 30.133125 1.989394 -0.349163 35.845673 -1.221800 -0.000000 -61.298200 8.793518 -0.634223 1.444012 8.804553 -7.400284 -24.220381 2.252376 0.184411 13.268459 -2.010851 -9.717655 -3.769258 -1.457700 0.000001 -33.124800 4.321612 -5.874535 -4.275503 0.697011 -6.358357 -2.857497 -5.341517 -6.322229 3.623148 10.094446 -24.505944 -11.848716 -1.920235 -0.093512 -1.019756 0.000000 0.000000 0.000000 6.020767 17.245708 0.815162 -40.189982 12.112808 3.651919 -1.539697 -62.498804 0.008143 -0.979970 -1.620473 0.014767 -0.105907 0.153004 0.000000 0.000000 0.000000 0.000000 0.000000 0.000000 0.000000 15.819528 -22.434246 -0.466645 70.720588 -20.141668 -7.404661 4.224611 31.430408 0.015869 6.354664 5.809798 0.321397 0.092695 -0.048185 -0.000000 0.000000 0.000000 0.000000 0.000000 0.000000 0.000000 
-7.698307 17.081751 0.573861 -159.062565 87.760732 -156.040569 -12.371256 5.676318 1.048883 2.468906 10.679815 7.520331 0.389155 2.077557 32.354264 2.142509 1.591332 35.683895 -0.015300 0.000000 -55.039400 8.713269 -0.767340 1.178309 9.110539 -8.601091 -24.236151 2.276431 -0.025786 15.156497 -1.841555 -8.886969 -3.841385 -1.301700 0.000000 -33.190000 4.698100 -5.710121 -4.082284 0.750943 -6.212477 -2.840267 -5.351391 -6.178085 3.583336 10.087109 -24.391985 -11.874483 -1.939568 -0.095331 -1.028803 0.000000 0.000000 0.000000 5.900414 17.298524 0.805329 -40.789247 12.738256 3.755538 -1.583870 -61.986863 0.007847 -1.010835 -1.458486 0.013873 -0.109256 0.142992 0.000000 0.000000 0.000000 0.000000 0.000000 0.000000 0.000000 15.841217 -22.213662 -0.432372 70.244549 -19.236492 -7.402792 4.226200 31.115246 0.016043 6.165993 5.808243 0.311607 0.094133 -0.049748 -0.000000 0.000000 0.000000 0.000000 0.000000 0.000000 0.000000 
-7.463926 17.075208 0.572400 -155.111774 88.055219 -152.350916 -12.547372 5.616062 0.980593 2.692649 11.419774 6.503174 0.462059 2.123266 34.611707 2.283621 4.026517 34.761900 1.484200 0.000000 -49.344300 8.635244 -0.894431 0.939035 9.293637 -9.725067 -24.161121 2.293324 -0.207841 16.837760 -1.679658 -8.050228 -4.011229 -1.135600 -0.000000 -33.020300 5.015051 -5.539455 -3.861578 0.790670 -6.054393 -2.816383 -5.362766 -6.022000 3.542098 10.080568 -24.245301 -11.897006 -1.960029 -0.097204 -1.037504 0.000000 0.000000 0.000000 5.757678 17.366633 0.792867 -41.438724 13.357349 3.893720 -1.631569 -61.363999 0.007138 -0.893290 -1.260706 0.010783 -0.114388 0.132177 0.000000 0.000000 0.000000 0.000000 0.000000 0.000000 0.000000 15.861003 -21.963034 -0.393887 69.784796 -18.231436 -7.381587 4.226132 30.758934 0.016153 5.961271 5.782204 0.299816 0.095614 -0.051298 -0.000000 0.000000 0.000000 0.000000 0.000000 0.000000 0.000000 
-7.233129 17.068579 0.570678 -151.214946 88.378610 -148.695859 -12.702120 5.533470 0.875057 2.760628 12.162243 5.431605 0.536327 2.188571 36.866688 2.413380 6.782206 33.098738 3.093400 0.000000 -44.496600 8.562460 -1.014943 0.736776 9.345945 -10.708544 -23.969740 2.304214 -0.359678 18.280170 -1.530694 -7.236790 -4.269894 -0.969800 0.000000 -32.672300 5.269996 -5.363204 -3.625667 0.816598 -5.885136 -2.787998 -5.375353 -5.854962 3.500036 10.070360 -24.061913 -11.914162 -1.983135 -0.099309 -1.045222 0.000000 0.000000 0.000000 5.588110 17.458767 0.778154 -42.126640 13.957860 4.077555 -1.683181 -60.631239 0.006171 -0.647441 -1.052301 0.006694 -0.120916 0.120689 0.000000 0.000000 0.000000 0.000000 0.000000 0.000000 0.000000 15.881443 -21.677190 -0.354013 69.339302 -17.151570 -7.344885 4.224480 30.389099 0.016176 5.759549 5.722724 0.286522 0.096985 -0.052794 -0.000000 0.000000 0.000000 0.000000 0.000000 0.000000 0.000000 
-7.005464 17.062217 0.569161 -147.424847 88.732620 -145.120904 -12.827291 5.433344 0.738945 2.658267 12.894148 4.295543 0.608983 2.271613 39.098098 2.529890 9.651416 30.700336 4.599900 -0.000000 -40.202900 8.503946 -1.126649 0.575803 9.262870 -11.533984 -23.675356 2.310596 -0.484744 19.505198 -1.394442 -6.445684 -4.614823 -0.807899 0.000000 -32.182400 5.454163 -5.183872 -3.387898 0.828682 -5.707168 -2.757160 -5.386054 -5.679584 3.459802 10.052370 -23.857980 -11.925897 -2.006653 -0.101451 -1.051793 0.000000 0.000000 0.000000 5.388052 17.579506 0.760907 -42.843980 14.537369 4.309797 -1.738533 -59.795102 0.005035 -0.300210 -0.829712 0.002704 -0.128364 0.108486 0.000000 0.000000 0.000000 0.000000 0.000000 0.000000 0.000000 15.894964 -21.375208 -0.314496 68.896549 -15.990349 -7.229611 4.221258 29.992106 0.016174 5.547633 5.661731 0.272929 0.098360 -0.054304 -0.000000 0.000000 0.000000 0.000000 0.000000 0.000000 0.000000 
